<svg xmlns="http://www.w3.org/2000/svg" xmlns:xlink="http://www.w3.org/1999/xlink"><defs>
        <clipPath id="a">
            <path fill="#fff" transform="rotate(90 21.5 21.5)" d="M0 0h70v24H0z"/>
        </clipPath>
    
        <clipPath id="a">
            <rect rx="0" width="23" height="23" transform="translate(17.5 17.5)" fill="currentColor" fill-opacity="0"/>
        </clipPath>
    </defs><symbol id="arrow" viewBox="0 0 92 62"><g fill="none">
    <path d="M40 52.213a29.836 29.836 0 0 0 15.297 8.21 29.76 29.76 0 0 0 17.26-1.707 29.902 29.902 0 0 0 13.408-11.049A30.089 30.089 0 0 0 91 31a30.089 30.089 0 0 0-5.035-16.667 29.902 29.902 0 0 0-13.407-11.05 29.76 29.76 0 0 0-17.262-1.707A29.837 29.837 0 0 0 40 9.786" stroke="currentColor" stroke-width="2" stroke-linecap="round"/>
    <path d="M5 31h60M58 24l7 7-7 7" stroke="currentColor" stroke-width="2" stroke-linecap="round" stroke-linejoin="round"/>
</g></symbol><symbol id="arrowdown" viewBox="0 0 62 92"><g fill="none">
    <path d="M9.787 40a29.837 29.837 0 0 0-8.21 15.297 29.76 29.76 0 0 0 1.707 17.26 29.902 29.902 0 0 0 11.049 13.408A30.089 30.089 0 0 0 31 91a30.089 30.089 0 0 0 16.667-5.035 29.902 29.902 0 0 0 11.05-13.407 29.76 29.76 0 0 0 1.706-17.262A29.836 29.836 0 0 0 52.213 40" stroke="#1F1E1E" stroke-width="2" stroke-linecap="round"/>
    <g clip-path="url(#a)" stroke="#1F1E1E" stroke-width="2" stroke-linecap="round" stroke-linejoin="round">
        <path d="M31 5v60M38 58l-7 7-7-7"/>
    </g>
    
</g></symbol><symbol id="arrowright" viewBox="0 0 92 62"><g fill="none">
    <path d="M40 52.213a29.836 29.836 0 0 0 15.297 8.21 29.76 29.76 0 0 0 17.26-1.707 29.902 29.902 0 0 0 13.408-11.049A30.089 30.089 0 0 0 91 31a30.089 30.089 0 0 0-5.035-16.667 29.902 29.902 0 0 0-13.407-11.05 29.76 29.76 0 0 0-17.262-1.707A29.837 29.837 0 0 0 40 9.786" stroke="currentColor" stroke-width="2" stroke-linecap="round"/>
    <path d="M5 31h60M58 24l7 7-7 7" stroke="currentColor" stroke-width="2" stroke-linecap="round" stroke-linejoin="round"/>
</g></symbol><symbol id="dignity"><g fill="none">
    <path d="M57.63 8.42V5.74h2.19V0h2.82v5.74h2.12v2.72h-2.12v9.52c0 1.57.64 2.44 1.93 2.62.24.04.48.07.73.07h.46l.63 2.82H65.2c-2.72-.02-4.39-1.04-5.01-3.06-.23-.75-.34-1.68-.34-2.78l-.03-9.23h-2.19ZM0 23.49V.26h2.88v23.23H0Zm4.54 0v-2.86c2.26 0 3.77-.35 4.55-1.06.66-.62.99-1.49.99-2.62V6.8q0-1.19-.56-2-.8-1.17-2.79-1.52-.93-.17-2.19-.17V.26q4.98 0 7.06 2.46.39.45.67.99c.49.89.73 1.91.73 3.09v10.15c0 4.16-2.53 6.34-7.6 6.54h-.86ZM15.82 3.08c0-.69.32-1.17.96-1.46q.34-.13.67-.13c.66 0 1.15.31 1.46.93q.13.33.13.66c0 .66-.31 1.15-.93 1.46-.22.09-.44.13-.66.13-.69 0-1.19-.31-1.49-.93a1.74 1.74 0 0 1-.14-.66Zm36.5 0c0-.69.32-1.17.96-1.46.23-.09.45-.13.67-.13.66 0 1.15.31 1.46.93.09.22.13.44.13.66 0 .66-.31 1.15-.93 1.46-.22.09-.44.13-.66.13-.69 0-1.19-.31-1.5-.93-.08-.22-.13-.44-.13-.66ZM21.4 29.63l.69-2.59h6.24c1.24-.05 2.15-.53 2.72-1.46.18-.31.27-.59.27-.83v-2.39c-.91.64-1.82.98-2.72 1.03v-2.56c.97 0 1.74-.41 2.32-1.22.27-.38.4-.76.4-1.13v-8.13c0-.84-.47-1.51-1.4-1.99-.44-.22-.88-.34-1.32-.34V5.4q.81 0 1.52.28.59.23 1.1.65c.04.02.08.05.1.07v-1h2.69v19.35c0 .95-.44 1.93-1.3 2.95-1.08 1.26-2.42 1.9-4.01 1.93h-7.3Zm.33-11.12v-8.4q.08-1.51 1.39-2.95c1.09-1.15 2.42-1.73 4.02-1.76v2.62c-1.09 0-1.91.47-2.46 1.4-.2.33-.3.63-.3.89v8.17c0 .66.35 1.25 1.03 1.76q.31.21.65.34.5.19 1.08.19v2.62c-2.04-.02-3.59-.89-4.65-2.59-.51-.82-.76-1.58-.76-2.29Zm14.83 4.98V10.38c0-1.06.48-2.1 1.43-3.12q.79-.8 1.75-1.25 1.17-.54 2.59-.54v2.75q-.95 0-1.65.42-.54.33-.93.91c-.25.38-.37.76-.37 1.16v12.78h-2.82Zm7.23-15.27V5.47c2.06 0 3.67.83 4.82 2.49.62.86.92 1.67.92 2.42v13.11h-2.82V10.71c0-.68-.34-1.29-1.02-1.82-.56-.44-1.19-.67-1.9-.67Zm22.93-2.68h2.96l5.04 14.03-3.42 10.22h-2.82l3.25-10.25-5.01-14Zm7.34 7.69 3.02-7.69H80l-4.42 11.58h-.3l-1.22-3.89ZM16.05 23.49V6h2.79v17.49h-2.79Zm36.5 0V6h2.79v17.49h-2.79ZM52.4 24.9l-.01 10.27h1.26V24.9H52.4Zm10.21 2.67c-.81.43-1.21 1.08-1.21 1.96 0 .2.02.38.06.56.16.59.6 1.03 1.34 1.32.2.07.53.15.98.26.43.1.74.19.93.25.77.23 1.15.54 1.15.92 0 .3-.11.57-.32.79-.3.31-.67.46-1.12.46v1.15c.56 0 1.06-.13 1.5-.39.74-.45 1.12-1.13 1.12-2.06 0-.34-.08-.65-.22-.92-.28-.51-.75-.84-1.41-.97-1.06-.25-1.77-.46-2.13-.61-.49-.19-.73-.45-.73-.76q0-.07.01-.14.04-.23.18-.44c.24-.36.58-.55 1.03-.55v-1.13c-.39 0-.77.1-1.16.3Zm1.8-.3v1.15c.14 0 .3.03.48.1q.53.19.74.57.13.24.13.55l1.14-.19c0-.44-.15-.85-.47-1.25-.52-.62-1.19-.93-2.02-.93ZM35.3 33.02c0 .51.2.98.6 1.41q.21.23.48.39.57.35 1.36.35v-1.16q-.51 0-.83-.25-.17-.13-.29-.33a.934.934 0 0 1-.11-.41v-3.53q0-.11.03-.22.08-.33.45-.58.11-.07.23-.12.24-.09.52-.09v-1.17q-.81 0-1.38.37-.42.27-.71.72-.35.54-.35 1.06v3.56Zm3.09-4.53q.4 0 .66.19.21.15.33.42c.07.15.11.31.12.48v.35l1.13-.44q0-.48-.18-.88-.22-.48-.69-.85-.31-.23-.66-.34-.34-.11-.71-.11v1.18Zm3.33 4.53V29.36q.03-.64.61-1.26.33-.34.73-.54.52-.25 1.16-.25v1.18c-.58 0-.97.24-1.2.71-.06.15-.1.29-.1.44v3.19q0 .17.05.33.11.33.45.58c.23.18.5.27.8.27v1.17q-.73 0-1.28-.31-.5-.28-.86-.81c-.24-.36-.36-.71-.36-1.04Zm3.12 2.16v-1.17q.38 0 .66-.18.27-.17.44-.52c.08-.16.12-.31.12-.45v-3.22q0-.28-.11-.5-.12-.26-.4-.45c-.21-.13-.45-.2-.72-.2v-1.18q.69 0 1.22.3.49.27.84.79c.24.36.36.7.36 1.03v3.71q-.05.65-.61 1.26-.31.34-.7.53-.49.24-1.1.25Zm9.97-2.16v-3.6c.01-.45.23-.89.64-1.32.5-.52 1.11-.78 1.83-.79v1.15c-.46 0-.83.2-1.09.61-.1.17-.16.33-.16.48v.99h3.25v-.99q0-.26-.1-.47-.16-.31-.56-.49c-.21-.1-.42-.14-.63-.14v-1.14q.4 0 .76.11.55.17 1.03.6.51.5.63 1.07.03.16.04.31v2.31h-4.42v1.31c0 .27.16.52.47.75.25.18.51.26.79.26v1.14c-.88 0-1.57-.36-2.07-1.08q-.41-.56-.41-1.07Zm-6.57-3.59v3.59c0 .32.11.66.34 1.03.48.74 1.15 1.12 2.01 1.12h1.1v-1.18h-1.12c-.21 0-.42-.07-.62-.2-.35-.22-.52-.49-.52-.8v-3.48c0-.15.05-.3.16-.47q.23-.33.54-.46.2-.08.43-.08h1.13v-1.17h-1.15c-.61 0-1.14.22-1.59.65-.47.45-.7.93-.71 1.45Zm-9.85 5.75q.4.01.76-.11.57-.18 1.04-.67.47-.5.58-1.07.03-.18.03-.35l-1.13-.43v.29l-.01.03q-.04.44-.27.71-.2.24-.55.35-.08.03-.17.05-.13.03-.28.03v1.17Zm24.09-2.29-1.15.22c0 .38.12.76.36 1.11.47.68 1.17 1.02 2.11 1.02v-1.15c-.2-.01-.42-.06-.64-.17-.46-.25-.68-.6-.68-1.03Zm-4.49 2.28v-1.15c.58 0 1.02-.25 1.31-.75q.09-.16.13-.31l1.03.38c-.17.67-.57 1.17-1.19 1.51-.4.21-.82.32-1.28.32Z" fill="#111" fill-rule="evenodd"/>
</g></symbol><symbol id="door"><g fill="none">
    <path d="m10 17 5-5-5-5M15 12H3M15 3h4a2 2 0 0 1 2 2v14a2 2 0 0 1-2 2h-4" stroke="#1F1E1E" stroke-width="2" stroke-linecap="round" stroke-linejoin="round"/>
</g></symbol><symbol id="handshake"><g fill="none">
    <path d="M16.48 10.41c-.39.39-1.04.39-1.43 0l-4.47-4.46-7.05 7.04-.66-.63a3 3 0 0 1 0-4.24l4.24-4.24a3 3 0 0 1 4.24 0L16.48 9c.39.39.39 1.02 0 1.41Zm.7-2.12c.78.78.78 2.05 0 2.83-1.27 1.27-2.61.22-2.83 0l-3.76-3.76-5.57 5.57a.996.996 0 0 0 0 1.41c.39.39 1.02.39 1.42 0l4.62-4.62.71.71-4.62 4.62a.996.996 0 0 0 0 1.41c.39.39 1.02.39 1.42 0l4.62-4.62.71.71-4.62 4.62a.997.997 0 0 0 1.41 1.41l4.62-4.62.71.71-4.62 4.62a.998.998 0 0 0 .705 1.702.997.997 0 0 0 .705-.292l8.32-8.34a3 3 0 0 0 0-4.24l-4.24-4.24a3.001 3.001 0 0 0-4.18-.06l4.47 4.47Z" fill="#BC3324"/>
</g></symbol><symbol id="home"><g fill="none">
    <path d="m20 8-6-5.26a3 3 0 0 0-4 0L4 8a3 3 0 0 0-1 2.26V19a3 3 0 0 0 3 3h12a3 3 0 0 0 3-3v-8.75A3 3 0 0 0 20 8Zm-6 12h-4v-5a1 1 0 0 1 1-1h2a1 1 0 0 1 1 1v5Zm5-1a1 1 0 0 1-1 1h-2v-5a3 3 0 0 0-3-3h-2a3 3 0 0 0-3 3v5H6a1 1 0 0 1-1-1v-8.75a1 1 0 0 1 .34-.75l6-5.25a1 1 0 0 1 1.32 0l6 5.25a1 1 0 0 1 .34.75V19Z" fill="currentColor"/>
    <path d="M19 19a1 1 0 0 1-1 1h-2v-5a3 3 0 0 0-3-3h-2a3 3 0 0 0-3 3v5H6a1 1 0 0 1-1-1v-8.75a1 1 0 0 1 .34-.75l6-5.25a1 1 0 0 1 1.32 0l6 5.25a1 1 0 0 1 .34.75V19Z" fill="#BC3324"/>
</g></symbol><symbol id="insta"><g fill="none">
    <circle cx="29" cy="29" r="29" fill="#1F1E1E"/>
    <path d="M29 24a5 5 0 1 0 0 10 5 5 0 0 0 0-10Zm0 8.247a3.248 3.248 0 1 1 0-6.496 3.248 3.248 0 0 1 0 6.496Z" fill="currentColor"/>
    <path d="M34 25a1 1 0 1 0 0-2 1 1 0 0 0 0 2Z" fill="#fff"/>
    <path d="M38.47 22.444a5.106 5.106 0 0 0-2.924-2.918 7.348 7.348 0 0 0-2.428-.466c-1.07-.047-1.408-.06-4.12-.06s-3.06 0-4.12.06c-.83.016-1.65.174-2.426.466a5.11 5.11 0 0 0-2.925 2.918 7.293 7.293 0 0 0-.465 2.424c-.048 1.067-.062 1.405-.062 4.114 0 2.708 0 3.053.062 4.114.017.83.173 1.648.465 2.425a5.11 5.11 0 0 0 2.926 2.919 7.321 7.321 0 0 0 2.427.499c1.07.047 1.408.061 4.12.061s3.06 0 4.12-.061a7.355 7.355 0 0 0 2.428-.465 5.125 5.125 0 0 0 2.924-2.92 7.296 7.296 0 0 0 .466-2.423c.048-1.067.062-1.405.062-4.114 0-2.71 0-3.053-.062-4.114a7.286 7.286 0 0 0-.468-2.459Zm-1.352 10.57a5.585 5.585 0 0 1-.346 1.872 3.312 3.312 0 0 1-1.901 1.897 5.544 5.544 0 0 1-1.855.345c-1.055.049-1.353.061-4.058.061-2.708 0-2.984 0-4.06-.06a5.514 5.514 0 0 1-1.853-.346 3.316 3.316 0 0 1-1.91-1.897 5.627 5.627 0 0 1-.345-1.85c-.047-1.054-.058-1.351-.058-4.053s0-2.978.058-4.053a5.579 5.579 0 0 1 .346-1.87 3.314 3.314 0 0 1 1.909-1.899 5.571 5.571 0 0 1 1.853-.345c1.057-.047 1.353-.06 4.06-.06 2.706 0 2.984 0 4.058.06.634.008 1.26.125 1.855.345a3.322 3.322 0 0 1 1.901 1.899c.218.593.335 1.219.346 1.85.047 1.055.06 1.351.06 4.053s0 2.992-.048 4.052h-.013Z" fill="#fff"/>
</g></symbol><symbol id="location"><g fill="none">
    <circle cx="12" cy="12" r="9" fill="currentColor"/>
</g></symbol><symbol id="log-in"><g fill="none">
    <path d="m10 17 5-5-5-5M15 12H3M15 3h4a2 2 0 0 1 2 2v14a2 2 0 0 1-2 2h-4" stroke="#A51505" stroke-width="2" stroke-linecap="round" stroke-linejoin="round"/>
</g></symbol><symbol id="logo" viewBox="0 0 202 147"><g fill="none">
    <path fill="#1F1E1E" d="M0 0h147v147H0z"/>
    <path d="M39.965 72.439H26.633V50.032h-.032v-.033h-4.686V73h18.05v-.561ZM43.932 73h18.117v-.561H48.618V61.285h10.494v-.594H48.618V50.56h13.43v-.561H43.933V73ZM70.7 73V50.56c2.87 0 11.714 1.089 12.374 13.893V73h4.686V49.999h-4.686v10.329C81.655 54.19 77.167 49.999 70.7 49.999h-4.686V73H70.7ZM97.39 73V50.56c2.87 0 11.714 1.089 12.374 13.893V73h4.686V49.999h-4.686v10.329c-1.419-6.138-5.907-10.329-12.375-10.329h-4.686V73h4.686ZM119.393 73h4.686V49.999h-4.686V73Z" fill="#fff"/>
    <path fill="#BC3324" d="M81 92h121v42H81z"/>
    <path d="M108.922 124h.54l2.94-8.55h8.55l3.33 8.55h4.47l-8.1-20.91h-4.53l-7.2 20.91Zm7.5-20.25 4.35 11.19h-8.19l3.84-11.19ZM132.644 103.09V124h4.26v-7.23h5.07l4.89 7.2h4.86l-5.16-7.65c3-.78 5.28-2.64 5.28-6.81 0-5.22-3.81-6.87-8.25-6.87-4.68 0-6.03 3.51-6.69 7.41v-6.96h-4.26Zm5.43 4.38c.81-2.94 2.91-4.14 4.77-4.29 4.47-.42 4.65 2.43 4.65 6.33 0 6.33-3.36 6.75-6.24 6.75h-4.35s-.12-4.14 1.17-8.79ZM162.084 103.6l.03 20.4h4.26v-20.4h8.61v-.51h-21.51v.51h8.61Z" fill="#fff"/>
</g></symbol><symbol id="ok" viewBox="0 0 26 26">
    <circle cx="13" cy="13" r="13" fill="#1F1E1E"/>
    <path d="M19.71 8.21a1 1 0 0 0-1.42 0l-7.45 7.46-3.13-3.14A1.02 1.02 0 1 0 6.29 14l3.84 3.84a1.002 1.002 0 0 0 1.42 0l8.16-8.16a1 1 0 0 0 0-1.47Z" fill="#fff"/>
</symbol><symbol id="phone"><g fill="none">
    <path d="M22 16.92v3a2 2 0 0 1-2.18 2 19.79 19.79 0 0 1-8.63-3.07 19.5 19.5 0 0 1-6-6 19.79 19.79 0 0 1-3.07-8.67A2 2 0 0 1 4.11 2h3a2 2 0 0 1 2 1.72c.127.96.361 1.903.7 2.81a2 2 0 0 1-.45 2.11L8.09 9.91a16 16 0 0 0 6 6l1.27-1.27a2 2 0 0 1 2.11-.45c.907.339 1.85.574 2.81.7A2 2 0 0 1 22 16.92Z" fill="#BC3324"/>
</g></symbol><symbol id="price"><g fill="none">
    <path fill-rule="evenodd" clip-rule="evenodd" d="M12 23c6.075 0 11-4.925 11-11S18.075 1 12 1 1 5.925 1 12s4.925 11 11 11Zm-1-6.6a1 1 0 0 1 1-1h.011a1 1 0 1 1 0 2H12a1 1 0 0 1-1-1Zm2-8.8a1 1 0 1 0-2 0V12a1 1 0 1 0 2 0V7.6Z" fill="#BC3324"/>
</g></symbol><symbol id="star"><g fill="none">
    <path d="M21.663 8.772a1 1 0 0 1 .33.462 1 1 0 0 1-.32 1.02l-4.13 4 1 5.68a1 1 0 0 1-.99 1.19.93.93 0 0 1-.46-.12l-5.1-2.68-5.12 2.67a1 1 0 0 1-1.45-1.07l1-5.68-4.13-4a1 1 0 0 1-.25-1 1 1 0 0 1 .81-.68l5.69-.84 2.55-5.16a1 1 0 0 1 1.8 0l2.55 5.17 5.69.83a1 1 0 0 1 .53.208Z" fill="currentColor"/>
</g></symbol><symbol id="tagree" viewBox="0 0 57 17">
    <path d="M6.301 12.695H4.107a3.15 3.15 0 0 1-1.276-.262 3.309 3.309 0 0 1-1.037-.704 3.6 3.6 0 0 1-.698-1.066 3.227 3.227 0 0 1-.26-1.288V.604L3.23 0v3.843h1.396l.598 2.414H3.23v3.118c0 .255.086.47.26.644a.84.84 0 0 0 .617.261h1.596l.598 2.415ZM16.7 2.615v10.08h-2.393v-5.03c0-.805-.28-1.489-.838-2.052a2.757 2.757 0 0 0-2.034-.845 2.91 2.91 0 0 0-1.117.221 2.862 2.862 0 0 0-.917.624 2.806 2.806 0 0 0-.837 2.052c0 .791.279 1.469.837 2.032.266.282.572.496.918.644.358.134.73.201 1.116.201.4 0 .758-.067 1.077-.201l.858 2.152c-.612.309-1.323.463-2.134.463a5.1 5.1 0 0 1-2.034-.402 5.065 5.065 0 0 1-1.596-1.147 5.253 5.253 0 0 1-1.057-1.69 5.568 5.568 0 0 1-.378-2.052c0-.738.126-1.428.378-2.072a5.252 5.252 0 0 1 1.057-1.69 4.807 4.807 0 0 1 1.596-1.127 4.892 4.892 0 0 1 2.034-.422c.651 0 1.23.1 1.735.302.505.2.95.456 1.336.764v-.805H16.7ZM28.326 11.689c0 .724-.14 1.408-.419 2.052a5.188 5.188 0 0 1-1.116 1.69 5.41 5.41 0 0 1-1.675 1.147 5.03 5.03 0 0 1-2.054.422 5.053 5.053 0 0 1-1.696-.282 5.279 5.279 0 0 1-1.475-.804l1.735-1.73c.425.268.904.402 1.436.402.81 0 1.488-.289 2.034-.865.558-.564.837-1.24.837-2.032V7.645c0-.778-.279-1.462-.837-2.052a2.757 2.757 0 0 0-2.034-.845c-.771 0-1.45.282-2.035.845-.558.59-.837 1.274-.837 2.052 0 .805.28 1.489.837 2.052.585.563 1.264.845 2.035.845.398 0 .757-.067 1.076-.201l.898 2.253a5.12 5.12 0 0 1-1.935.362h-.04a5.194 5.194 0 0 1-2.034-.402 5.41 5.41 0 0 1-2.811-2.837 5.151 5.151 0 0 1-.42-2.072 5.9 5.9 0 0 1 .36-2.072c.24-.644.572-1.207.997-1.69a4.65 4.65 0 0 1 1.555-1.127 4.71 4.71 0 0 1 1.995-.422c.69 0 1.303.107 1.834.322.532.2.997.456 1.396.764v-.784h2.393v9.053ZM31.92 3.4a5.173 5.173 0 0 1 1.257-.764 4.132 4.132 0 0 1 1.615-.302v2.414c-.797 0-1.476.282-2.034.845-.558.59-.837 1.274-.837 2.052v5.05h-2.393V2.615h2.393V3.4ZM42.85 8.872h-5.224c.133.309.325.584.578.825.28.282.592.496.937.644.346.134.712.201 1.097.201.545 0 1.03-.127 1.456-.382l2.493 1.006a5.143 5.143 0 0 1-1.735 1.327 5.28 5.28 0 0 1-2.214.463 5.245 5.245 0 0 1-2.054-.402 5.41 5.41 0 0 1-2.812-2.837 5.322 5.322 0 0 1-.399-2.052c0-.738.133-1.428.4-2.072a5.462 5.462 0 0 1 1.136-1.69 5.136 5.136 0 0 1 1.675-1.127 5.03 5.03 0 0 1 2.054-.422c.731 0 1.416.14 2.054.422a5.136 5.136 0 0 1 1.675 1.127c.479.483.851 1.046 1.117 1.69.28.644.419 1.334.419 2.072 0 .43-.047.832-.14 1.207H42.85Zm-2.612-4.104c-.771 0-1.449.282-2.034.845a2.73 2.73 0 0 0-.578.845h5.224a2.732 2.732 0 0 0-.578-.845 2.757 2.757 0 0 0-2.034-.845ZM54.185 8.872H48.96c.133.309.326.584.578.825.28.282.592.496.937.644.346.134.712.201 1.097.201.545 0 1.03-.127 1.456-.382l2.493 1.006a5.143 5.143 0 0 1-1.735 1.327 5.281 5.281 0 0 1-2.214.463 5.245 5.245 0 0 1-2.054-.402 5.41 5.41 0 0 1-2.812-2.837 5.322 5.322 0 0 1-.398-2.052c0-.738.133-1.428.398-2.072a5.464 5.464 0 0 1 1.137-1.69 5.136 5.136 0 0 1 1.675-1.127 5.03 5.03 0 0 1 2.054-.422c.731 0 1.416.14 2.054.422a5.136 5.136 0 0 1 1.675 1.127c.479.483.851 1.046 1.117 1.69.28.644.419 1.334.419 2.072 0 .43-.047.832-.14 1.207h-2.512Zm-2.613-4.104c-.77 0-1.449.282-2.034.845a2.73 2.73 0 0 0-.578.845h5.225a2.73 2.73 0 0 0-.579-.845 2.757 2.757 0 0 0-2.034-.845Z" fill="currentColor"/>
</symbol><symbol id="user"><g fill="none">
    <path d="M13.3 12.22A4.92 4.92 0 0 0 15 8.5a5 5 0 0 0-10 0 4.92 4.92 0 0 0 1.7 3.72A8 8 0 0 0 2 19.5a1 1 0 1 0 2 0 6 6 0 1 1 12 0 1 1 0 0 0 2 0 8 8 0 0 0-4.7-7.28ZM10 11.5a3 3 0 1 1 0-6 3 3 0 0 1 0 6Zm11.71-2.37a1 1 0 0 0-1.42 0l-2 2-.62-.63a1.002 1.002 0 0 0-1.71.705 1 1 0 0 0 .29.705l1.34 1.34a1 1 0 0 0 1.41 0l2.67-2.67a1 1 0 0 0 .04-1.45Z" fill="#1F1E1E"/>
</g></symbol><symbol id="vk"><g fill="none">
    
    <rect rx="0" width="57" height="57" transform="translate(.5 .5)" fill="none"/>
    <circle cx="29" cy="29" r="29" fill="#1F1E1E"/>
    <rect rx="0" width="23" height="23" transform="translate(17.5 17.5)" fill="none"/>
    <g clip-path="url(#a)" fill="#FFF">
        <path d="M22.71 19c-.99 0-1.93.39-2.62 1.09-.7.69-1.09 1.63-1.09 2.62v12.57c0 .99.39 1.93 1.09 2.62.69.7 1.63 1.09 2.62 1.1h12.57c.99-.01 1.93-.4 2.62-1.1.7-.69 1.09-1.63 1.1-2.62V22.71c-.01-.99-.4-1.93-1.1-2.62-.69-.7-1.63-1.09-2.62-1.09H22.71Zm0 1.81h12.57c1.06 0 1.9.84 1.9 1.9v12.57c0 1.06-.84 1.9-1.9 1.9H22.71c-.25 0-.5-.05-.73-.14-.23-.1-.44-.24-.62-.41-.17-.18-.31-.39-.41-.62-.09-.23-.14-.48-.14-.73V22.71c0-1.06.84-1.9 1.9-1.9Z"/>
        <path d="M34.72 26.4c.08-.23 0-.4-.4-.4h-1.31c-.33 0-.49.14-.57.31 0 0-.67 1.37-1.61 2.26-.31.26-.45.34-.62.34-.08 0-.21-.08-.21-.32V26.4c0-.28-.09-.4-.37-.4h-2.06c-.21 0-.33.13-.33.25 0 .27.47.33.52 1.08v1.62c0 .36-.08.43-.25.43-.44 0-1.52-1.38-2.17-2.96-.12-.3-.25-.42-.58-.42h-1.31c-.38 0-.45.14-.45.31 0 .29.44 1.74 2.07 3.66 1.08 1.31 2.61 2.03 4 2.03.84 0 .94-.16.94-.43v-1c0-.31.08-.37.34-.37.2 0 .53.08 1.31.71.89.75 1.04 1.09 1.54 1.09h1.31c.37 0 .56-.16.45-.47-.11-.31-.54-.77-1.1-1.3-.31-.3-.77-.63-.91-.8-.19-.21-.14-.3 0-.49 0 0 1.6-1.89 1.77-2.54Z" fill-rule="evenodd"/>
    </g>
</g></symbol><symbol id="x" viewBox="0 0 60 60"><g fill="none">
    <path d="M36 24 24 36M24 24l12 12" stroke="#fff" stroke-width="2" stroke-linecap="round" stroke-linejoin="round"/>
</g></symbol></svg>