<svg viewBox="0 0 141 141" fill="none" xmlns="http://www.w3.org/2000/svg">
<path d="M141 70.5C141 109.436 109.436 141 70.5 141C31.5639 141 0 109.436 0 70.5C0 31.5639 31.5639 0 70.5 0C109.436 0 141 31.5639 141 70.5Z" fill="#1F1E1E"/>
<path d="M41.4531 77H39.5859V67.1797H36.2266V65.5781H44.8125V67.1797H41.4531V77ZM51.7812 77L51.4141 75.7969H51.3516C50.9349 76.3229 50.5156 76.6823 50.0938 76.875C49.6719 77.0625 49.1302 77.1562 48.4688 77.1562C47.6198 77.1562 46.9557 76.9271 46.4766 76.4688C46.0026 76.0104 45.7656 75.362 45.7656 74.5234C45.7656 73.6328 46.0964 72.9609 46.7578 72.5078C47.4193 72.0547 48.4271 71.8073 49.7812 71.7656L51.2734 71.7188V71.2578C51.2734 70.7057 51.1432 70.2943 50.8828 70.0234C50.6276 69.7474 50.2292 69.6094 49.6875 69.6094C49.2448 69.6094 48.8203 69.6745 48.4141 69.8047C48.0078 69.9349 47.6172 70.0885 47.2422 70.2656L46.6484 68.9531C47.1172 68.7083 47.6302 68.5234 48.1875 68.3984C48.7448 68.2682 49.2708 68.2031 49.7656 68.2031C50.8646 68.2031 51.6927 68.4427 52.25 68.9219C52.8125 69.401 53.0938 70.1536 53.0938 71.1797V77H51.7812ZM49.0469 75.75C49.7135 75.75 50.2474 75.5651 50.6484 75.1953C51.0547 74.8203 51.2578 74.2969 51.2578 73.625V72.875L50.1484 72.9219C49.2839 72.9531 48.6536 73.099 48.2578 73.3594C47.8672 73.6146 47.6719 74.0078 47.6719 74.5391C47.6719 74.9245 47.7865 75.224 48.0156 75.4375C48.2448 75.6458 48.5885 75.75 49.0469 75.75ZM57.4922 68.3594V71.8281H61.5625V68.3594H63.3984V77H61.5625V73.2734H57.4922V77H55.6562V68.3594H57.4922ZM73.7266 75.5781H74.9766V80.0391H73.25V77H66.0312V68.3594H67.8672V75.5469H71.8906V68.3594H73.7266V75.5781ZM84.1016 68.3594V77H82.2578V69.8125H78.3828V77H76.5469V68.3594H84.1016ZM94.3984 72.6641C94.3984 74.0755 94.0365 75.1771 93.3125 75.9688C92.5885 76.7604 91.5807 77.1562 90.2891 77.1562C89.4818 77.1562 88.7682 76.974 88.1484 76.6094C87.5286 76.2448 87.0521 75.7214 86.7188 75.0391C86.3854 74.3568 86.2188 73.5651 86.2188 72.6641C86.2188 71.263 86.5781 70.1693 87.2969 69.3828C88.0156 68.5964 89.0286 68.2031 90.3359 68.2031C91.5859 68.2031 92.5755 68.6068 93.3047 69.4141C94.0339 70.2161 94.3984 71.2995 94.3984 72.6641ZM88.1094 72.6641C88.1094 74.6589 88.8464 75.6562 90.3203 75.6562C91.7786 75.6562 92.5078 74.6589 92.5078 72.6641C92.5078 70.6901 91.7734 69.7031 90.3047 69.7031C89.5339 69.7031 88.974 69.9583 88.625 70.4688C88.2812 70.9792 88.1094 71.7109 88.1094 72.6641ZM103.617 77H101.766V69.7969H99.3828C99.237 71.651 99.0391 73.099 98.7891 74.1406C98.5443 75.1823 98.2214 75.9427 97.8203 76.4219C97.4245 76.901 96.9089 77.1406 96.2734 77.1406C95.8724 77.1406 95.5365 77.0833 95.2656 76.9688V75.5312C95.4583 75.6042 95.651 75.6406 95.8438 75.6406C96.375 75.6406 96.7917 75.0443 97.0938 73.8516C97.401 72.6536 97.6406 70.8229 97.8125 68.3594H103.617V77Z" fill="white"/>
</svg>
