<svg width="80.000000" height="35.244629" viewBox="0 0 80 35.2446" fill="none" xmlns="http://www.w3.org/2000/svg" xmlns:xlink="http://www.w3.org/1999/xlink">
	<desc>
			Created with Pixso.
	</desc>
	<defs/>
	<path id="Dignity" d="M57.63 8.42L57.63 5.74L59.82 5.74L59.82 0L62.64 0L62.64 5.74L64.76 5.74L64.76 8.46L62.64 8.46L62.64 17.98C62.64 19.55 63.28 20.42 64.57 20.6C64.81 20.64 65.05 20.67 65.3 20.67L65.76 20.67L66.39 23.49L65.2 23.49C62.48 23.47 60.81 22.45 60.19 20.43C59.96 19.68 59.85 18.75 59.85 17.65L59.82 8.42L57.63 8.42ZM0 23.49L0 0.26L2.88 0.26L2.88 23.49L0 23.49ZM4.54 23.49L4.54 20.63C6.8 20.63 8.31 20.28 9.09 19.57C9.75 18.95 10.08 18.08 10.08 16.95L10.08 6.8Q10.08 5.61 9.52 4.8Q8.72 3.63 6.73 3.28Q5.8 3.11 4.54 3.11L4.54 0.26Q9.52 0.26 11.6 2.72L11.6 2.72Q11.99 3.17 12.27 3.71C12.76 4.6 13 5.62 13 6.8L13 16.95C13 21.11 10.47 23.29 5.4 23.49L4.54 23.49ZM15.82 3.08C15.82 2.39 16.14 1.91 16.78 1.62Q17.12 1.49 17.45 1.49C18.11 1.49 18.6 1.8 18.91 2.42Q19.04 2.75 19.04 3.08C19.04 3.74 18.73 4.23 18.11 4.54C17.89 4.63 17.67 4.67 17.45 4.67C16.76 4.67 16.26 4.36 15.96 3.74C15.87 3.52 15.82 3.3 15.82 3.08ZM52.32 3.08C52.32 2.39 52.64 1.91 53.28 1.62C53.51 1.53 53.73 1.49 53.95 1.49C54.61 1.49 55.1 1.8 55.41 2.42C55.5 2.64 55.54 2.86 55.54 3.08C55.54 3.74 55.23 4.23 54.61 4.54C54.39 4.63 54.17 4.67 53.95 4.67C53.26 4.67 52.76 4.36 52.45 3.74C52.37 3.52 52.32 3.3 52.32 3.08ZM21.4 29.63L22.09 27.04L28.33 27.04C29.57 26.99 30.48 26.51 31.05 25.58C31.23 25.27 31.32 24.99 31.32 24.75L31.32 22.36C30.41 23 29.5 23.34 28.6 23.39L28.6 20.83C29.57 20.83 30.34 20.42 30.92 19.61C31.19 19.23 31.32 18.85 31.32 18.48L31.32 10.35C31.32 9.51 30.85 8.84 29.92 8.36C29.48 8.14 29.04 8.02 28.6 8.02L28.6 5.4Q29.41 5.4 30.12 5.68L30.12 5.68Q30.71 5.91 31.22 6.33C31.26 6.35 31.3 6.38 31.32 6.4L31.32 5.4L34.01 5.4L34.01 24.75C34.01 25.7 33.57 26.68 32.71 27.7C31.63 28.96 30.29 29.6 28.7 29.63L21.4 29.63ZM21.73 18.51L21.73 10.21Q21.73 10.16 21.73 10.11L21.73 10.11Q21.81 8.6 23.12 7.16C24.21 6.01 25.54 5.43 27.14 5.4L27.14 8.02C26.05 8.02 25.23 8.49 24.68 9.42C24.48 9.75 24.38 10.05 24.38 10.31L24.38 18.48C24.38 19.14 24.73 19.73 25.41 20.24Q25.72 20.45 26.06 20.58Q26.56 20.77 27.14 20.77L27.14 23.39C25.1 23.37 23.55 22.5 22.49 20.8C21.98 19.98 21.73 19.22 21.73 18.51ZM36.56 23.49L36.56 10.38C36.56 9.32 37.04 8.28 37.99 7.26Q38.78 6.46 39.74 6.01Q40.91 5.47 42.33 5.47L42.33 8.22Q41.38 8.22 40.68 8.64Q40.14 8.97 39.75 9.55C39.5 9.93 39.38 10.31 39.38 10.71L39.38 23.49L36.56 23.49ZM43.79 8.22L43.79 5.47C45.85 5.47 47.46 6.3 48.61 7.96C49.23 8.82 49.53 9.63 49.53 10.38L49.53 23.49L46.71 23.49L46.71 10.71C46.71 10.03 46.37 9.42 45.69 8.89C45.13 8.45 44.5 8.22 43.79 8.22ZM66.72 5.54L69.68 5.54L74.72 19.57L71.3 29.79L68.48 29.79L71.73 19.54L66.72 5.54ZM74.06 13.23L77.08 5.54L80 5.54L75.58 17.12L75.28 17.12L74.06 13.23ZM16.05 23.49L16.05 6L18.84 6L18.84 23.49L16.05 23.49ZM52.55 23.49L52.55 6L55.34 6L55.34 23.49L52.55 23.49Z" fill="#111111" fill-opacity="1.000000" fill-rule="evenodd"/>
	<path id="Codes" d="M52.4 24.9L52.39 35.17L53.65 35.17L53.65 24.9L52.4 24.9ZM62.61 27.57C61.8 28 61.4 28.65 61.4 29.53C61.4 29.73 61.42 29.91 61.46 30.09C61.62 30.68 62.06 31.12 62.8 31.41C63 31.48 63.33 31.56 63.78 31.67C64.21 31.77 64.52 31.86 64.71 31.92C65.48 32.15 65.86 32.46 65.86 32.84C65.86 33.14 65.75 33.41 65.54 33.63C65.24 33.94 64.87 34.09 64.42 34.09L64.42 35.24C64.98 35.24 65.48 35.11 65.92 34.85C66.66 34.4 67.04 33.72 67.04 32.79C67.04 32.45 66.96 32.14 66.82 31.87C66.54 31.36 66.07 31.03 65.41 30.9C64.35 30.65 63.64 30.44 63.28 30.29C62.79 30.1 62.55 29.84 62.55 29.53Q62.55 29.46 62.56 29.39Q62.6 29.16 62.74 28.95C62.98 28.59 63.32 28.4 63.77 28.4L63.77 27.27C63.38 27.27 63 27.37 62.61 27.57ZM64.41 27.27L64.41 28.42C64.55 28.42 64.71 28.45 64.89 28.52Q65.42 28.71 65.63 29.09Q65.76 29.33 65.76 29.64L66.9 29.45C66.9 29.01 66.75 28.6 66.43 28.2C65.91 27.58 65.24 27.27 64.41 27.27ZM35.3 33.02C35.3 33.53 35.5 34 35.9 34.43Q36.11 34.66 36.38 34.82Q36.95 35.17 37.74 35.17L37.74 34.01Q37.23 34.01 36.91 33.76Q36.74 33.63 36.62 33.43C36.55 33.29 36.51 33.15 36.51 33.02L36.51 29.49Q36.51 29.38 36.54 29.27L36.54 29.27Q36.62 28.94 36.99 28.69Q37.1 28.62 37.22 28.57L37.22 28.57Q37.46 28.48 37.74 28.48L37.74 27.31Q36.93 27.31 36.36 27.68L36.36 27.68Q35.94 27.95 35.65 28.4Q35.3 28.94 35.3 29.46L35.3 33.02ZM38.39 28.49Q38.79 28.49 39.05 28.68Q39.26 28.83 39.38 29.1C39.45 29.25 39.49 29.41 39.5 29.58L39.5 29.93L40.63 29.49Q40.63 29.01 40.45 28.61L40.45 28.61L40.45 28.61Q40.23 28.13 39.76 27.76Q39.45 27.53 39.1 27.42Q38.76 27.31 38.39 27.31L38.39 28.49ZM41.72 33.02L41.72 29.43Q41.72 29.4 41.72 29.36Q41.75 28.72 42.33 28.1Q42.66 27.76 43.06 27.56L43.06 27.56L43.06 27.56Q43.58 27.31 44.22 27.31L44.22 28.49C43.64 28.49 43.25 28.73 43.02 29.2C42.96 29.35 42.92 29.49 42.92 29.64L42.92 32.83Q42.92 33 42.97 33.16Q43.08 33.49 43.42 33.74C43.65 33.92 43.92 34.01 44.22 34.01L44.22 35.18Q43.49 35.18 42.94 34.87Q42.44 34.59 42.08 34.06C41.84 33.7 41.72 33.35 41.72 33.02ZM44.84 35.18L44.84 34.01Q45.22 34.01 45.5 33.83Q45.77 33.66 45.94 33.31C46.02 33.15 46.06 33 46.06 32.86L46.06 29.64Q46.06 29.36 45.95 29.14L45.95 29.14Q45.83 28.88 45.55 28.69C45.34 28.56 45.1 28.49 44.83 28.49L44.83 27.31Q45.52 27.31 46.05 27.61Q46.54 27.88 46.89 28.4C47.13 28.76 47.25 29.1 47.25 29.43L47.25 33.02Q47.25 33.08 47.25 33.14L47.25 33.14L47.25 33.14L47.25 33.14Q47.2 33.79 46.64 34.4Q46.33 34.74 45.94 34.93L45.94 34.93Q45.45 35.17 44.84 35.18ZM54.81 33.02L54.81 29.42C54.82 28.97 55.04 28.53 55.45 28.1C55.95 27.58 56.56 27.32 57.28 27.31L57.28 28.46C56.82 28.46 56.45 28.66 56.19 29.07C56.09 29.24 56.03 29.4 56.03 29.55L56.03 30.54L59.28 30.54L59.28 29.55Q59.28 29.29 59.18 29.08Q59.02 28.77 58.62 28.59C58.41 28.49 58.2 28.45 57.99 28.45L57.99 27.31Q58.39 27.31 58.75 27.42Q59.3 27.59 59.78 28.02Q60.29 28.52 60.41 29.09Q60.44 29.25 60.45 29.4L60.45 31.71L56.03 31.71L56.03 33.02C56.03 33.29 56.19 33.54 56.5 33.77C56.75 33.95 57.01 34.03 57.29 34.03L57.29 35.17C56.41 35.17 55.72 34.81 55.22 34.09Q54.81 33.53 54.81 33.02ZM48.24 29.43L48.24 33.02C48.24 33.34 48.35 33.68 48.58 34.05C49.06 34.79 49.73 35.17 50.59 35.17L51.69 35.17L51.69 33.99L50.57 33.99C50.36 33.99 50.15 33.92 49.95 33.79C49.6 33.57 49.43 33.3 49.43 32.99L49.43 29.51C49.43 29.36 49.48 29.21 49.59 29.04Q49.82 28.71 50.13 28.58Q50.33 28.5 50.56 28.5L51.69 28.5L51.69 27.33L50.54 27.33C49.93 27.33 49.4 27.55 48.95 27.98C48.48 28.43 48.25 28.91 48.24 29.43ZM38.39 35.18Q38.79 35.19 39.15 35.07L39.15 35.07Q39.72 34.89 40.19 34.4Q40.66 33.9 40.77 33.33Q40.8 33.15 40.8 32.98L39.67 32.55L39.67 32.84L39.66 32.87Q39.62 33.31 39.39 33.58L39.39 33.58Q39.19 33.82 38.84 33.93Q38.76 33.96 38.67 33.98L38.67 33.98Q38.54 34.01 38.39 34.01L38.39 35.18ZM62.48 32.89L61.33 33.11C61.33 33.49 61.45 33.87 61.69 34.22C62.16 34.9 62.86 35.24 63.8 35.24L63.8 34.09C63.6 34.08 63.38 34.03 63.16 33.92C62.7 33.67 62.48 33.32 62.48 32.89ZM57.99 35.17L57.99 34.02C58.57 34.02 59.01 33.77 59.3 33.27Q59.39 33.11 59.43 32.96L60.46 33.34C60.29 34.01 59.89 34.51 59.27 34.85C58.87 35.06 58.45 35.17 57.99 35.17Z" fill="#111111" fill-opacity="1.000000" fill-rule="evenodd"/>
</svg>
