<svg viewBox="0 0 26 26"   xmlns="http://www.w3.org/2000/svg">
<circle cx="13" cy="13" r="13" fill="#1F1E1E"/>
<path d="M19.71 8.20986C19.617 8.11613 19.5064 8.04174 19.3846 7.99097C19.2627 7.9402 19.132 7.91406 19 7.91406C18.868 7.91406 18.7373 7.9402 18.6154 7.99097C18.4936 8.04174 18.383 8.11613 18.29 8.20986L10.84 15.6699L7.71001 12.5299C7.61349 12.4366 7.49955 12.3633 7.37469 12.3141C7.24984 12.2649 7.11651 12.2408 6.98233 12.2431C6.84815 12.2454 6.71574 12.2741 6.59266 12.3276C6.46959 12.3811 6.35825 12.4583 6.26501 12.5549C6.17177 12.6514 6.09846 12.7653 6.04925 12.8902C6.00005 13.015 5.97592 13.1484 5.97824 13.2825C5.98056 13.4167 6.00929 13.5491 6.06278 13.6722C6.11628 13.7953 6.19349 13.9066 6.29001 13.9999L10.13 17.8399C10.223 17.9336 10.3336 18.008 10.4554 18.0588C10.5773 18.1095 10.708 18.1357 10.84 18.1357C10.972 18.1357 11.1027 18.1095 11.2246 18.0588C11.3464 18.008 11.457 17.9336 11.55 17.8399L19.71 9.67986C19.8115 9.58622 19.8925 9.47257 19.9479 9.34607C20.0033 9.21957 20.0319 9.08296 20.0319 8.94486C20.0319 8.80676 20.0033 8.67015 19.9479 8.54365C19.8925 8.41715 19.8115 8.3035 19.71 8.20986Z" fill="white"/>
</svg>
