<svg width="58.000000" height="58.000000" viewBox="0 0 58 58" fill="none" xmlns="http://www.w3.org/2000/svg" xmlns:xlink="http://www.w3.org/1999/xlink">
	<desc>
			Created with Pixso.
	</desc>
	<defs>
		<clipPath id="clip229_2139">
			<rect id="la:vk" rx="0.000000" width="23.000000" height="23.000000" transform="translate(17.500000 17.500000)" fill="currentColor" fill-opacity="0"/>
		</clipPath>
	</defs>
	<rect id="vk" rx="0.000000" width="57.000000" height="57.000000" transform="translate(0.500000 0.500000)" fill="#FFFFFF" fill-opacity="0"/>
	<circle id="Ellipse 17" cx="29.000000" cy="29.000000" r="29.000000" fill="#1F1E1E" fill-opacity="1.000000"/>
	<rect id="la:vk" rx="0.000000" width="23.000000" height="23.000000" transform="translate(17.500000 17.500000)" fill="#FFFFFF" fill-opacity="0"/>
	<g clip-path="url(#clip229_2139)">
		<path id="Vector" d="M22.71 19C21.72 19 20.78 19.39 20.09 20.09C19.39 20.78 19 21.72 19 22.71L19 35.28C19 36.27 19.39 37.21 20.09 37.9C20.78 38.6 21.72 38.99 22.71 39L35.28 39C36.27 38.99 37.21 38.6 37.9 37.9C38.6 37.21 38.99 36.27 39 35.28L39 22.71C38.99 21.72 38.6 20.78 37.9 20.09C37.21 19.39 36.27 19 35.28 19L22.71 19ZM22.71 20.81L35.28 20.81C36.34 20.81 37.18 21.65 37.18 22.71L37.18 35.28C37.18 36.34 36.34 37.18 35.28 37.18L22.71 37.18C22.46 37.18 22.21 37.13 21.98 37.04C21.75 36.94 21.54 36.8 21.36 36.63C21.19 36.45 21.05 36.24 20.95 36.01C20.86 35.78 20.81 35.53 20.81 35.28L20.81 22.71C20.81 21.65 21.65 20.81 22.71 20.81Z" fill="#FFFFFF" fill-opacity="1.000000" fill-rule="nonzero"/>
		<path id="Vector" d="M34.72 26.4C34.8 26.17 34.72 26 34.32 26L33.01 26C32.68 26 32.52 26.14 32.44 26.31C32.44 26.31 31.77 27.68 30.83 28.57C30.52 28.83 30.38 28.91 30.21 28.91C30.13 28.91 30 28.83 30 28.59L30 26.4C30 26.12 29.91 26 29.63 26L27.57 26C27.36 26 27.24 26.13 27.24 26.25C27.24 26.52 27.71 26.58 27.76 27.33L27.76 28.95C27.76 29.31 27.68 29.38 27.51 29.38C27.07 29.38 25.99 28 25.34 26.42C25.22 26.12 25.09 26 24.76 26L23.45 26C23.07 26 23 26.14 23 26.31C23 26.6 23.44 28.05 25.07 29.97C26.15 31.28 27.68 32 29.07 32C29.91 32 30.01 31.84 30.01 31.57L30.01 30.57C30.01 30.26 30.09 30.2 30.35 30.2C30.55 30.2 30.88 30.28 31.66 30.91C32.55 31.66 32.7 32 33.2 32L34.51 32C34.88 32 35.07 31.84 34.96 31.53C34.85 31.22 34.42 30.76 33.86 30.23C33.55 29.93 33.09 29.6 32.95 29.43C32.76 29.22 32.81 29.13 32.95 28.94C32.95 28.94 34.55 27.05 34.72 26.4L34.72 26.4Z" fill="#FFFFFF" fill-opacity="1.000000" fill-rule="evenodd"/>
	</g>
</svg>
